HIERARCHY
ROOT Hips
{
	OFFSET 0.00000 0.00000 0.00000
	CHANNELS 6 Xposition Yposition Zposition Zrotation Yrotation Xrotation 
	JOINT LHipJoint
	{
		OFFSET 0 0 0
		CHANNELS 3 Zrotation Yrotation Xrotation
		JOINT LeftUpLeg
		{
			OFFSET 1.24777 -1.64261 0.71711
			CHANNELS 3 Zrotation Yrotation Xrotation
			JOINT LeftLeg
			{
				OFFSET 2.49329 -6.85026 0.00000
				CHANNELS 3 Zrotation Yrotation Xrotation
				JOINT LeftFoot
				{
					OFFSET 2.36770 -6.50520 0.00000
					CHANNELS 3 Zrotation Yrotation Xrotation
					JOINT LeftToeBase
					{
						OFFSET 0.14820 -0.40718 2.21395
						CHANNELS 3 Zrotation Yrotation Xrotation
						End Site
						{
							OFFSET 0.00000 -0.00000 1.13491
						}
					}
				}
			}
		}
	}
	JOINT RHipJoint
	{
		OFFSET 0 0 0
		CHANNELS 3 Zrotation Yrotation Xrotation
		JOINT RightUpLeg
		{
			OFFSET -1.18320 -1.64261 0.71711
			CHANNELS 3 Zrotation Yrotation Xrotation
			JOINT RightLeg
			{
				OFFSET -2.46559 -6.77417 0.00000
				CHANNELS 3 Zrotation Yrotation Xrotation
				JOINT RightFoot
				{
					OFFSET -2.38450 -6.55136 0.00000
					CHANNELS 3 Zrotation Yrotation Xrotation
					JOINT RightToeBase
					{
						OFFSET -0.17454 -0.47954 2.02925
						CHANNELS 3 Zrotation Yrotation Xrotation
						End Site
						{
							OFFSET -0.00000 -0.00000 1.05076
						}
					}
				}
			}
		}
	}
	JOINT LowerBack
	{
		OFFSET 0 0 0
		CHANNELS 3 Zrotation Yrotation Xrotation
		JOINT Spine
		{
			OFFSET -0.02305 1.98660 0.00319
			CHANNELS 3 Zrotation Yrotation Xrotation
			JOINT Spine1
			{
				OFFSET -0.00718 1.99033 -0.00533
				CHANNELS 3 Zrotation Yrotation Xrotation
				JOINT Neck
				{
					OFFSET 0 0 0
					CHANNELS 3 Zrotation Yrotation Xrotation
					JOINT Neck1
					{
						OFFSET 0.00095 1.61015 0.10698
						CHANNELS 3 Zrotation Yrotation Xrotation
						JOINT Head
						{
							OFFSET -0.01060 1.59924 0.01317
							CHANNELS 3 Zrotation Yrotation Xrotation
							End Site
							{
								OFFSET -0.00458 1.63304 -0.00592
							}
						}
					}
				}
				JOINT LeftShoulder
				{
					OFFSET 0 0 0
					CHANNELS 3 Zrotation Yrotation Xrotation
					JOINT LeftArm
					{
						OFFSET 3.05381 1.47088 -0.01697
						CHANNELS 3 Zrotation Yrotation Xrotation
						JOINT LeftForeArm
						{
							OFFSET 4.25106 -0.00000 0.00000
							CHANNELS 3 Zrotation Yrotation Xrotation
							JOINT LeftHand
							{
								OFFSET 3.27592 -0.00000 0.00000
								CHANNELS 3 Zrotation Yrotation Xrotation
								JOINT LeftFingerBase
								{
									OFFSET 0 0 0
									CHANNELS 3 Zrotation Yrotation Xrotation
									JOINT LeftHandIndex1
									{
										OFFSET 0.65781 -0.00000 0.00000
										CHANNELS 3 Zrotation Yrotation Xrotation
										End Site
										{
											OFFSET 0.53034 -0.00000 0.00000
										}
									}
								}
								JOINT LThumb
								{
									OFFSET 0 0 0
									CHANNELS 3 Zrotation Yrotation Xrotation
									End Site
									{
										OFFSET 0.53844 -0.00000 0.53844
									}
								}
							}
						}
					}
				}
				JOINT RightShoulder
				{
					OFFSET 0 0 0
					CHANNELS 3 Zrotation Yrotation Xrotation
					JOINT RightArm
					{
						OFFSET -2.83695 1.31619 -0.22674
						CHANNELS 3 Zrotation Yrotation Xrotation
						JOINT RightForeArm
						{
							OFFSET -4.46073 -0.00000 0.00000
							CHANNELS 3 Zrotation Yrotation Xrotation
							JOINT RightHand
							{
								OFFSET -3.44416 -0.00000 0.00000
								CHANNELS 3 Zrotation Yrotation Xrotation
								JOINT RightFingerBase
								{
									OFFSET 0 0 0
									CHANNELS 3 Zrotation Yrotation Xrotation
									JOINT RightHandIndex1
									{
										OFFSET -0.61651 -0.00000 0.00000
										CHANNELS 3 Zrotation Yrotation Xrotation
										End Site
										{
											OFFSET -0.49705 -0.00000 0.00000
										}
									}
								}
								JOINT RThumb
								{
									OFFSET 0 0 0
									CHANNELS 3 Zrotation Yrotation Xrotation
									End Site
									{
										OFFSET -0.50464 -0.00000 0.50464
									}
								}
							}
						}
					}
				}
			}
		}
	}
}
MOTION
Frames: 10
Frame Time: .0083333
4.6869 16.8394 -26.2701 0 0 0 0 0 0 -21 0 0 0 0 0 0 0 0 0 0 0 0 0 0 21 0 0 0 0 0 0 0 0 0 0 0 0 0 0 0 0 0 0 0 0 0 0 -16 0 0 21 0 0 11 0 0 0 -8 0 0 0 0 0 0 0 0 0 0 0 0 0 0 0 0 0 0 0 0 8 0 0 0 0 0 0 0 0 0 0 0 0 0 0 0 0 0
4.6869 16.8394 -26.2701 0.9943 -2.2712 8.8239 0.0000 0.0000 0.0000 -21.6381 -4.6086 -19.4503 3.2624 11.1082 32.6456 1.5561 1.0711 -23.9913 0.7451 5.5138 15.3801 0.0000 0.0000 0.0000 18.7245 7.8480 -19.7671 -3.7294 -11.7913 34.9977 -1.3663 -6.8257 -25.4964 -1.4722 -7.6673 21.7080 -2.7599 -0.3089 -7.2067 1.2037 -0.2318 -0.2827 2.7758 -0.1735 3.7671 -2.6866 -1.0677 -8.3491 2.2221 -1.2384 1.6827 1.1177 -0.5770 2.0027 -0.0000 0.0000 0.0000 -91.9176 10.0169 34.6308 22.2434 -33.2511 -6.7188 -0.0000 0.0000 -8.4019 14.0027 5.3936 1.3428 -7.1250 0.0000 -0.0000 -10.5490 35.3734 2.5302 -0.0000 0.0000 0.0000 87.7325 -7.3400 33.2972 -19.7900 30.3885 -5.4247 0.0000 0.0000 14.1411 -28.5373 -19.4490 10.2632 7.1250 -0.0000 -0.0000 -0.2311 -51.8774 0.0391
4.6870 16.8395 -26.2716 1.0198 -2.2486 8.8423 0.0000 0.0000 0.0000 -21.6615 -4.6712 -19.4496 3.2596 11.1039 32.6312 1.5546 1.0870 -23.9859 0.7543 5.5470 15.4755 0.0000 0.0000 0.0000 18.6938 7.8662 -19.7926 -3.7310 -11.7935 35.0054 -1.3726 -6.7919 -25.5227 -1.5134 -7.7691 22.0150 -2.7790 -0.3166 -7.1990 1.1949 -0.2404 -0.2951 2.7765 -0.1776 3.7505 -2.7009 -1.0670 -8.3362 2.2243 -1.2361 1.6576 1.1209 -0.5759 1.9922 0.0000 0.0000 0.0000 -91.9300 10.0277 34.5672 22.2243 -33.2296 -6.7083 -0.0000 0.0000 -8.3835 14.0379 5.4508 1.3605 -7.1250 0.0000 -0.0000 -10.5288 35.4331 2.5097 0.0000 0.0000 0.0000 87.7318 -7.3449 33.3233 -19.7780 30.3739 -5.4186 0.0000 0.0000 14.1556 -26.5162 -20.9309 10.1063 7.1250 -0.0000 -0.0000 2.1850 -53.1107 -0.4361
4.6872 16.8401 -26.2731 1.0057 -2.2523 8.8604 0.0000 0.0000 0.0000 -21.6435 -4.6944 -19.4620 3.2584 11.1021 32.6249 1.5547 1.0788 -23.9838 0.7601 5.5679 15.5356 0.0000 0.0000 0.0000 18.7059 7.8801 -19.8135 -3.7300 -11.7922 35.0008 -1.3597 -6.8837 -25.4844 -1.4468 -7.6036 21.5164 -2.7656 -0.3102 -7.1714 1.2033 -0.2341 -0.3212 2.7783 -0.1733 3.7075 -2.7178 -1.0620 -8.3743 2.2075 -1.2266 1.7117 1.1191 -0.5717 2.0167 -0.0000 -0.0000 0.0000 -91.9522 10.0694 34.5113 22.2225 -33.2276 -6.7074 -0.0000 0.0000 -8.3662 13.9684 5.3619 1.3315 -7.1250 0.0000 -0.0000 -10.5722 35.3396 2.5448 -0.0000 -0.0000 0.0000 87.7202 -7.3662 33.3364 -19.7719 30.3666 -5.4156 0.0000 0.0000 14.1577 -26.4941 -21.0434 10.1475 7.1250 -0.0000 -0.0000 2.2367 -53.2279 -0.4529
4.6869 16.8408 -26.2738 1.0086 -2.2193 8.8764 0.0000 0.0000 0.0000 -21.6414 -4.6368 -19.5078 3.2571 11.1001 32.6181 1.5560 0.9819 -23.9563 0.7539 5.5455 15.4711 0.0000 0.0000 0.0000 18.7061 7.9040 -19.8264 -3.7294 -11.7914 34.9979 -1.3543 -6.9503 -25.4867 -1.4399 -7.5862 21.4642 -2.7759 -0.3134 -7.2078 1.2060 -0.2366 -0.3142 2.7866 -0.1753 3.7354 -2.7073 -1.0589 -8.3887 2.1847 -1.2224 1.7186 1.1101 -0.5701 2.0211 -0.0000 -0.0000 0.0000 -91.9642 10.0480 34.4954 22.1993 -33.2015 -6.6946 -0.0000 0.0000 -8.3664 13.9632 5.3668 1.3323 -7.1250 0.0000 -0.0000 -10.5772 35.3444 2.5447 -0.0000 -0.0000 0.0000 87.7191 -7.3560 33.3367 -19.7636 30.3565 -5.4114 0.0000 0.0000 14.1347 -28.5627 -19.4430 10.2708 7.1250 -0.0000 -0.0000 -0.2582 -51.8755 0.0437
4.6867 16.8396 -26.2742 1.0321 -2.1785 8.8646 0.0000 0.0000 0.0000 -21.6635 -4.7355 -19.4518 3.2569 11.0997 32.6169 1.5575 1.0616 -23.9986 0.7505 5.5332 15.4359 0.0000 0.0000 0.0000 18.6876 7.9367 -19.7856 -3.7279 -11.7893 34.9905 -1.3763 -6.8407 -25.5814 -1.5178 -7.7797 22.0468 -2.7985 -0.3243 -7.1750 1.2025 -0.2501 -0.3275 2.7943 -0.1816 3.7041 -2.7092 -1.0532 -8.3908 2.1684 -1.2141 1.7418 1.1057 -0.5665 2.0287 -0.0000 0.0000 0.0000 -91.9642 10.0772 34.4826 22.1872 -33.1880 -6.6880 -0.0000 0.0000 -8.3706 13.9418 5.4190 1.3430 -7.1250 0.0000 -0.0000 -10.6028 35.3961 2.5375 -0.0000 0.0000 0.0000 87.7139 -7.3673 33.3492 -19.7483 30.3379 -5.4036 0.0000 0.0000 14.1516 -28.1213 -19.8011 10.2617 7.1250 -0.0000 -0.0000 0.2668 -52.1865 -0.0472
4.6867 16.8395 -26.2749 1.0362 -2.1475 8.8700 0.0000 0.0000 0.0000 -21.6643 -4.7438 -19.4570 3.2565 11.0991 32.6150 1.5588 1.0397 -24.0001 0.7488 5.5274 15.4192 0.0000 0.0000 0.0000 18.6869 7.9751 -19.7703 -3.7262 -11.7869 34.9822 -1.3818 -6.8435 -25.6249 -1.5362 -7.8247 22.1829 -2.8038 -0.3295 -7.1721 1.2045 -0.2568 -0.3338 2.7987 -0.1848 3.6965 -2.7126 -1.0494 -8.3974 2.1558 -1.2082 1.7554 1.1026 -0.5639 2.0341 -0.0000 -0.0000 0.0000 -91.9723 10.0880 34.4598 22.1752 -33.1745 -6.6815 -0.0000 0.0000 -8.3619 13.9242 5.4390 1.3462 -7.1250 0.0000 -0.0000 -10.6203 35.4155 2.5367 -0.0000 -0.0000 0.0000 87.7076 -7.3722 33.3597 -19.7423 30.3306 -5.4006 0.0000 0.0000 14.1509 -28.2617 -19.6940 10.2685 7.1250 -0.0000 -0.0000 0.1004 -52.0954 -0.0175
4.6866 16.8394 -26.2754 1.0363 -2.1155 8.8750 0.0000 0.0000 0.0000 -21.6607 -4.7395 -19.4671 3.2565 11.0992 32.6151 1.5605 1.0041 -23.9993 0.7481 5.5248 15.4116 0.0000 0.0000 0.0000 18.6908 8.0271 -19.7474 -3.7243 -11.7842 34.9727 -1.3839 -6.8835 -25.6668 -1.5619 -7.8868 22.3708 -2.8049 -0.3351 -7.1690 1.2074 -0.2643 -0.3396 2.8015 -0.1884 3.6893 -2.7146 -1.0455 -8.4041 2.1433 -1.2022 1.7691 1.0992 -0.5613 2.0396 0.0000 -0.0000 0.0000 -91.9796 10.0994 34.4391 22.1660 -33.1641 -6.6764 -0.0000 0.0000 -8.3497 13.8925 5.4313 1.3411 -7.1250 0.0000 -0.0000 -10.6452 35.4060 2.5453 0.0000 -0.0000 0.0000 87.7013 -7.3769 33.3705 -19.7382 30.3256 -5.3985 0.0000 0.0000 14.1495 -28.4391 -19.5587 10.2764 7.1250 -0.0000 -0.0000 -0.1088 -51.9799 0.0187
4.6865 16.8393 -26.2759 1.0340 -2.0788 8.8798 0.0000 0.0000 0.0000 -21.6542 -4.7268 -19.4793 3.2561 11.0985 32.6129 1.5623 0.9559 -23.9945 0.7479 5.5240 15.4095 0.0000 0.0000 0.0000 18.6980 8.0903 -19.7175 -3.7221 -11.7811 34.9619 -1.3896 -6.9157 -25.7298 -1.5837 -7.9391 22.5294 -2.8039 -0.3425 -7.1674 1.2110 -0.2746 -0.3440 2.8036 -0.1934 3.6846 -2.7173 -1.0416 -8.4069 2.1350 -1.1963 1.7769 1.0973 -0.5586 2.0424 0.0000 0.0000 0.0000 -91.9864 10.1094 34.4198 22.1587 -33.1560 -6.6725 -0.0000 0.0000 -8.3356 13.8752 5.4401 1.3415 -7.1250 0.0000 -0.0000 -10.6607 35.4141 2.5470 0.0000 0.0000 0.0000 87.6943 -7.3817 33.3838 -19.7383 30.3258 -5.3986 0.0000 0.0000 14.1450 -28.5481 -19.4658 10.2761 7.1250 -0.0000 -0.0000 -0.2389 -51.8978 0.0406
4.6865 16.8392 -26.2763 1.0341 -2.0453 8.8840 0.0000 0.0000 0.0000 -21.6507 -4.7166 -19.4888 3.2556 11.0977 32.6100 1.5645 0.9082 -23.9935 0.7497 5.5306 15.4284 0.0000 0.0000 0.0000 18.7017 8.1632 -19.6832 -3.7198 -11.7778 34.9505 -1.3909 -6.9855 -25.7850 -1.6063 -7.9928 22.6923 -2.8058 -0.3497 -7.1657 1.2142 -0.2842 -0.3469 2.8070 -0.1981 3.6813 -2.7206 -1.0387 -8.4096 2.1287 -1.1919 1.7820 1.0961 -0.5566 2.0444 -0.0000 0.0000 0.0000 -91.9941 10.1190 34.3997 22.1545 -33.1512 -6.6701 -0.0000 0.0000 -8.3186 13.8624 5.4411 1.3405 -7.1250 0.0000 -0.0000 -10.6714 35.4144 2.5496 -0.0000 0.0000 0.0000 87.6847 -7.3875 33.4018 -19.7438 30.3325 -5.4014 0.0000 0.0000 14.1362 -28.5486 -19.4619 10.2743 7.1250 -0.0000 -0.0000 -0.2402 -51.8936 0.0408
